<svg id="Layer_1" data-name="Layer 1" xmlns="http://www.w3.org/2000/svg" viewBox="0 0 1000 999.86">
    <defs>
        <style>
            .cls-1 {
                fill: #ff4655;
            }
        </style>
    </defs>
    <path class="cls-1"
        d="M999.68,289.51l-16.06,59.75a9.25,9.25,0,0,1-8.94,6.85H701.11a9.25,9.25,0,0,0-8.94,6.86l-3.52,13.12-21.54,80.2L631.46,589,595.72,722,522.93,993a9.26,9.26,0,0,1-17,2.2l-43.46-76a9.3,9.3,0,0,1-.9-7L512.67,722l71.39-265.7,21.54-80.2,5.36-20,.36-1.36L550.6,293.63a9.26,9.26,0,0,1,6.57-15.78H990.74A9.26,9.26,0,0,1,999.68,289.51Z" />
    <path class="cls-1"
        d="M766.11,463.15,718.32,641A9.26,9.26,0,0,0,722,651l78.89,54.06A9.26,9.26,0,0,1,795.68,722h-170a9.26,9.26,0,0,1-8.94-11.66l29.82-111,38.43-143L704.72,383a9.26,9.26,0,0,1,8.94-6.86H964.35a9.26,9.26,0,0,1,8.94,11.66l-16.57,61.69a9.26,9.26,0,0,1-8.94,6.85H775.05A9.26,9.26,0,0,0,766.11,463.15Z" />
    <path class="cls-1"
        d="M389,643.75l-.36,1.33,60.74,61.15A9.26,9.26,0,0,1,442.86,722H9.26A9.26,9.26,0,0,1,.32,710.35l43-160a9.26,9.26,0,0,1,8.94-6.85H225a9.27,9.27,0,0,0,8.94-6.86l47.79-177.85a9.26,9.26,0,0,0-3.71-10l-78.88-54.06a9.25,9.25,0,0,1,5.23-16.89h170a9.26,9.26,0,0,1,8.94,11.66l-29.83,111L315,543.55l-19.7,73.36a9.26,9.26,0,0,1-8.94,6.86H112.08a9.26,9.26,0,0,0-8.94,6.85l-.39,1.47a9.26,9.26,0,0,0,8.94,11.66h187.2a9.25,9.25,0,0,0,8.94-6.86l3.52-13.12,21.55-80.22,35.64-132.68,35.74-133,72.81-271a9.26,9.26,0,0,1,17-2.19l43.44,76a9.3,9.3,0,0,1,.9,7L487.33,277.85l-71.39,265.7L394.4,623.77Z" />
</svg>